<svg
        fill="none"
        height="24"
        viewBox="0 0 24 24"
        width="24"
        xmlns="http://www.w3.org/2000/svg"
>
    <g id="camera">
        <path fill-rule="evenodd" clip-rule="evenodd"
              d="M9.58115 1L14.4423 1C15.6996 0.999693 16.8621 1.6872 17.342 2.88101C17.5511 3.40116 17.7017 3.95703 18.3811 3.99818C18.7184 4.0186 19.0571 3.98607 19.3944 4.01949C21.2917 4.20747 22.7925 5.70836 22.9805 7.60562C23.0012 7.81473 23 8.05084 23 8.37723V16.2413C23 17.0463 23 17.7106 22.9558 18.2518C22.84 19.6688 22.1118 20.9038 20.816 21.564C20.3306 21.8113 19.8139 21.9099 19.2518 21.9558C18.7106 22 18.0463 22 17.2413 22H6.75869C5.95373 22 5.28938 22 4.74819 21.9558C4.18609 21.9099 3.66939 21.8113 3.18405 21.564C1.88826 20.9038 1.15998 19.6688 1.04421 18.2518C0.99999 17.7106 1 17.0463 1.00001 16.2413C1.00001 13.6027 1.00054 10.964 1.00001 8.32535C0.999945 8.02553 0.9999 7.80348 1.0195 7.60562C1.20748 5.70836 2.70837 4.20747 4.60563 4.01949C4.94288 3.98608 5.28168 4.0186 5.61895 3.99818C6.2981 3.95704 6.44885 3.40135 6.65804 2.88101C7.14362 1.67313 8.31476 1 9.58115 1ZM9.58115 3C9.12606 3 8.69723 3.17049 8.5137 3.627C8.01014 4.87963 7.22225 5.90474 5.73985 5.99452C5.42787 6.01341 5.11423 5.97889 4.80282 6.00975C3.85419 6.10374 3.10375 6.85418 3.00976 7.80281C3.00124 7.88877 3.00001 8.00297 3.00001 8.37723V16.2C3.00001 17.0566 3.00079 17.6389 3.03757 18.089C3.09747 18.8222 3.40749 19.4332 4.09203 19.782C4.24843 19.8617 4.47264 19.9266 4.91105 19.9625C5.36114 19.9992 5.94343 20 6.80001 20H17.2C18.0566 20 18.6389 19.9992 19.089 19.9625C19.5274 19.9266 19.7516 19.8617 19.908 19.782C20.5925 19.4332 20.9026 18.8222 20.9625 18.089C20.9992 17.6389 21 17.0566 21 16.2V8.37723C21 8.00297 20.9988 7.88877 20.9903 7.80281C20.8963 6.85418 20.1458 6.10374 19.1972 6.00975C18.8864 5.97896 18.5718 6.01339 18.2602 5.99452C16.7777 5.90473 15.9897 4.87919 15.4863 3.627C15.3028 3.17049 14.874 3 14.4189 3H9.58115ZM12 9.5C10.3432 9.5 9.00001 10.8431 9.00001 12.5C9.00001 14.1569 10.3432 15.5 12 15.5C13.6569 15.5 15 14.1569 15 12.5C15 10.8431 13.6569 9.5 12 9.5ZM7.00001 12.5C7.00001 9.73858 9.23859 7.5 12 7.5C14.7614 7.5 17 9.73858 17 12.5C17 15.2614 14.7614 17.5 12 17.5C9.23859 17.5 7.00001 15.2614 7.00001 12.5Z"
              fill="#E1E3E6"/>
    </g>

    <g id="plus">
        <path fill-rule="evenodd" clip-rule="evenodd"
              d="M13 5C13 4.44772 12.5523 4 12 4C11.4477 4 11 4.44772 11 5V11H5C4.44772 11 4 11.4477 4 12C4 12.5523 4.44772 13 5 13H11V19C11 19.5523 11.4477 20 12 20C12.5523 20 13 19.5523 13 19V13H19C19.5523 13 20 12.5523 20 12C20 11.4477 19.5523 11 19 11H13V5Z"
              fill="#E1E3E6"/>
    </g>

    <g id="chevron-down">
        <svg width="16" height="16" viewBox="0 0 16 16" fill="none" xmlns="http://www.w3.org/2000/svg">
            <path fill-rule="evenodd" clip-rule="evenodd"
                  d="M3.46967 5.46967C3.76256 5.17678 4.23744 5.17678 4.53033 5.46967L8 8.93934L11.4697 5.46967C11.7626 5.17678 12.2374 5.17678 12.5303 5.46967C12.8232 5.76256 12.8232 6.23744 12.5303 6.53033L8.53033 10.5303C8.23744 10.8232 7.76256 10.8232 7.46967 10.5303L3.46967 6.53033C3.17678 6.23744 3.17678 5.76256 3.46967 5.46967Z"
                  fill="#E1E3E6"/>
        </svg>
    </g>

    <g id="search">
        <svg width="20" height="20" viewBox="0 0 20 20" fill="none" xmlns="http://www.w3.org/2000/svg">
            <path fill-rule="evenodd" clip-rule="evenodd"
                  d="M8 2C4.68629 2 2 4.68629 2 8C2 11.3137 4.68629 14 8 14C11.3137 14 14 11.3137 14 8C14 4.68629 11.3137 2 8 2ZM0 8C0 3.58172 3.58172 0 8 0C12.4183 0 16 3.58172 16 8C16 9.84869 15.3729 11.5509 14.3199 12.9056L19.7071 18.2929C20.0976 18.6834 20.0976 19.3166 19.7071 19.7071C19.3166 20.0976 18.6834 20.0976 18.2929 19.7071L12.9057 14.3198C11.551 15.3729 9.84873 16 8 16C3.58172 16 0 12.4183 0 8Z"
                  fill="#B0B1B6"/>
        </svg>
    </g>

    <g id="chevron-left">
        <path fill-rule="evenodd" clip-rule="evenodd"
              d="M15.7071 5.29289C16.0976 5.68342 16.0976 6.31658 15.7071 6.70711L10.4142 12L15.7071 17.2929C16.0976 17.6834 16.0976 18.3166 15.7071 18.7071C15.3166 19.0976 14.6834 19.0976 14.2929 18.7071L8.29289 12.7071C7.90237 12.3166 7.90237 11.6834 8.29289 11.2929L14.2929 5.29289C14.6834 4.90237 15.3166 4.90237 15.7071 5.29289Z"
              fill="#76787A"/>
    </g>

    <g id="exit">
        <path fill-rule="evenodd" clip-rule="evenodd"
              d="M5.29289 5.29289C5.68342 4.90237 6.31658 4.90237 6.70711 5.29289L12 10.5858L17.2929 5.29289C17.6834 4.90237 18.3166 4.90237 18.7071 5.29289C19.0976 5.68342 19.0976 6.31658 18.7071 6.70711L13.4142 12L18.7071 17.2929C19.0976 17.6834 19.0976 18.3166 18.7071 18.7071C18.3166 19.0976 17.6834 19.0976 17.2929 18.7071L12 13.4142L6.70711 18.7071C6.31658 19.0976 5.68342 19.0976 5.29289 18.7071C4.90237 18.3166 4.90237 17.6834 5.29289 17.2929L10.5858 12L5.29289 6.70711C4.90237 6.31658 4.90237 5.68342 5.29289 5.29289Z"
              fill="#B0B1B6"/>
    </g>

    <g id="arrow-right">
        <path fill-rule="evenodd" clip-rule="evenodd"
              d="M13.2929 5.29289C13.6834 4.90237 14.3166 4.90237 14.7071 5.29289L20.7071 11.2929C21.0976 11.6834 21.0976 12.3166 20.7071 12.7071L14.7071 18.7071C14.3166 19.0976 13.6834 19.0976 13.2929 18.7071C12.9024 18.3166 12.9024 17.6834 13.2929 17.2929L17.5858 13H4C3.44772 13 3 12.5523 3 12C3 11.4477 3.44772 11 4 11H17.5858L13.2929 6.70711C12.9024 6.31658 12.9024 5.68342 13.2929 5.29289Z"
              fill="#0047BB"/>
    </g>

    <g id="arrow-down">
        <path fill-rule="evenodd" clip-rule="evenodd"
              d="M5.29289 8.29289C5.68342 7.90237 6.31658 7.90237 6.70711 8.29289L12 13.5858L17.2929 8.29289C17.6834 7.90237 18.3166 7.90237 18.7071 8.29289C19.0976 8.68342 19.0976 9.31658 18.7071 9.70711L12.7071 15.7071C12.3166 16.0976 11.6834 16.0976 11.2929 15.7071L5.29289 9.70711C4.90237 9.31658 4.90237 8.68342 5.29289 8.29289Z"
              fill="#E1E3E6"/>
    </g>

    <g id="burger">
        <path d="M3 17C3 17.5523 3.44772 18 4 18H20C20.5523 18 21 17.5523 21 17C21 16.4477 20.5523 16 20 16H4C3.44772 16 3 16.4477 3 17ZM3 12C3 12.5523 3.44772 13 4 13H20C20.5523 13 21 12.5523 21 12C21 11.4477 20.5523 11 20 11H4C3.44772 11 3 11.4477 3 12ZM4 6C3.44772 6 3 6.44772 3 7C3 7.55228 3.44772 8 4 8H20C20.5523 8 21 7.55228 21 7C21 6.44772 20.5523 6 20 6H4Z"
              fill="#E1E3E6"/>
    </g>


</svg>
